<svg version="1.1" id="Layer_1" xmlns="http://www.w3.org/2000/svg" xmlns:xlink="http://www.w3.org/1999/xlink" x="0px" y="0px"
	 width="100%" height="100%" viewBox="0 0 409.635 409.635" style="enable-background:new 0 0 409.635 409.635;"
	 xml:space="preserve">
<path fill="#fff" d="M216.819,0c1.155,0.245,2.302,0.643,3.468,0.712c14.666,0.872,28.998,3.604,43.05,7.802
	c40.044,11.964,73.288,34.316,99.818,66.453c23.979,29.047,38.764,62.347,44.165,99.705c0.872,6.034,1.549,12.096,2.316,18.144
	c0,8.001,0,16.001,0,24.002c-0.245,1.158-0.643,2.308-0.712,3.477c-0.875,14.665-3.595,29.001-7.806,43.049
	c-11.58,38.632-32.832,71.004-63.426,97.211c-29.724,25.461-63.99,41.078-102.737,46.762c-6.029,0.884-12.089,1.55-18.135,2.317
	c-8.001,0-16.001,0-24.002,0c-1.155-0.245-2.302-0.643-3.467-0.712c-14.666-0.872-28.998-3.604-43.05-7.802
	c-40.044-11.964-73.288-34.316-99.818-66.453c-23.979-29.047-38.764-62.347-44.165-99.705C1.444,228.929,0.767,222.868,0,216.819
	c0-8.001,0-16.001,0-24.002c0.245-1.158,0.643-2.308,0.713-3.477c0.875-14.665,3.595-29.001,7.806-43.049
	c11.58-38.632,32.832-71.004,63.426-97.212c29.724-25.461,63.99-41.078,102.737-46.762c6.029-0.884,12.089-1.55,18.135-2.317
	 M280.155,218.752c-1.956,6.489-3.459,12.157,3.235,16.281c1.891,1.165,3.337,3.049,5.004,4.584
	c8.719,8.025,9.856,16.848,3.376,26.731c-5.183,7.905-10.614,15.656-15.527,23.724c-1.707,2.803-2.895,6.306-3.104,9.567
	c-0.718,11.17-0.876,22.375-1.289,33.566c-0.215,5.826-1.216,11.372-5.657,15.718c-8.577,8.393-16.991,16.957-25.694,25.217
	c-6.941,6.588-14.93,7.327-23.476,2.557c-4.995-2.788-9.873-5.786-14.827-8.651c-5.65-3.267-8.826-8.126-10.238-14.501
	c-3.756-16.968-6.44-34.226-13.468-50.34c-0.973-2.232-1.943-3.285-4.465-3.456c-8.369-0.566-16.706-1.752-25.079-2.069
	c-10.186-0.385-17.704-4.169-22.561-13.585c-4.935-9.568-10.599-18.768-16.148-28.007c-2.908-4.841-3.675-9.945-2.871-15.357
	c1.466-9.867,3.111-19.708,4.577-29.575c0.827-5.564,3.419-9.962,7.914-13.335c9.271-6.955,18.497-13.97,27.744-20.957
	c6.259-4.729,13.05-5.688,20.331-2.753c4.559,1.838,9.06,3.822,13.614,5.674c4.916,1.998,9.714,4.877,14.829,5.682
	c12.348,1.942,24.847,2.926,37.295,4.207c1.09,0.112,2.472-0.111,3.339-0.719c8.381-5.874,16.681-11.865,25.145-17.923
	c-1.403-2.608-1.03-6.097-5.274-6.184c-6.26-0.129-12.517-0.513-18.77-0.866c-17.563-0.992-35.133-1.886-52.682-3.094
	c-9.601-0.661-16.495-7.636-17.35-16.818c-0.781-8.383,5.013-16.636,13.705-19.216c6.493-1.927,13.082-3.528,19.572-5.465
	c1.693-0.505,3.41-1.465,4.713-2.657c6.689-6.119,13.702-11.974,19.733-18.7c7.115-7.934,15.849-10.372,25.961-10.936
	c10.468-0.584,20.885-2.081,31.309-3.176c3.545-14.502,7.011-28.678,10.511-42.994c-1.03-0.615-1.87-1.278-2.823-1.661
	c-11.449-4.594-22.941-9.079-34.356-13.755c-2.894-1.185-4.661-0.459-6.365,1.975c-5.208,7.439-12.112,12.6-20.909,15.158
	c-1.905,0.554-3.656,1.648-5.567,2.166c-6.863,1.86-11.68,6.236-16.092,11.649c-8.671,10.639-17.757,20.941-26.735,31.327
	c-5.936,6.866-13.362,9.543-22.206,6.988c-13.083-3.78-18.434-17.858-11.817-31.129c3.62-7.26,7.174-14.612,11.527-21.432
	c3.874-6.07,3.661-11.832,1.136-18.085c-0.368,0-0.784-0.086-1.15,0.012c-19.654,5.292-38.149,13.229-55.11,24.533
	c-1.204,0.803-2.133,2.93-2.154,4.455c-0.174,12.665-0.032,25.334-0.128,38.001c-0.106,13.878-5.891,24.962-17.144,33.005
	c-6.276,4.486-13.005,8.339-19.281,12.826c-3.091,2.21-6.158,4.834-8.308,7.918c-12.26,17.586-24.256,35.357-36.278,53.107
	c-0.769,1.136-1.385,2.621-1.428,3.965c-0.465,14.444,1.112,28.713,4.214,42.802c0.22,0.997,2.06,2.234,3.222,2.318
	c3.979,0.288,7.996,0.216,11.992,0.091c9.684-0.301,16.86,3.821,21.989,11.942c6.682,10.58,13.446,21.109,20.269,31.599
	c1.291,1.985,2.859,3.858,4.582,5.482c6.696,6.308,13.514,12.485,20.27,18.728c6.105,5.642,8.664,12.636,7.709,20.866
	c-1.012,8.725-1.972,17.462-3.317,26.138c-0.403,2.598,0.542,3.499,2.479,4.592c39.784,22.436,82.228,30.233,127.085,21.556
	c59.41-11.492,103.158-44.764,131.741-97.935c12.398-23.063,18.871-47.946,20.448-74.019c0.877-14.49,0.198-28.974-2.6-43.204
	c-3.934-0.668-6.05,0.739-6.412,4.655c-0.12,1.297-0.644,2.57-1.067,3.825c-4.325,12.843-17.193,17.363-28.529,9.934
	c-3.225-2.113-6.172-4.647-9.353-6.833c-0.846-0.582-2.343-1.128-3.106-0.768c-4.146,1.953-8.155,4.196-12.757,6.627
	c1.394,0.811,2.151,1.267,2.922,1.699c10.116,5.663,12.912,17.622,6.148,27.021c-2.328,3.235-5.105,6.148-7.679,9.206
	c-7.682,9.126-17.174,10.571-27.282,4.117C294.424,227.959,287.513,223.486,280.155,218.752z M228.278,362.234
	c7.977-8.36,15.926-16.617,23.751-24.989c0.884-0.946,1.456-2.523,1.521-3.839c0.599-12.111,1.232-24.226,1.477-36.348
	c0.121-5.977,1.896-11.133,5.203-16.011c5.886-8.683,11.587-17.491,17.475-26.413c-3.806-3.615-7.41-7.156-11.143-10.556
	c-5.363-4.884-7.354-10.939-6.444-18.006c0.441-3.426,0.961-6.857,1.721-10.224c3.081-13.647,16.781-19.308,28.902-11.889
	c6.242,3.82,12.305,7.931,18.465,11.886c1.295,0.831,2.66,1.553,4.066,2.369c2.959-3.452,5.675-6.622,8.522-9.945
	c-1.324-0.783-2.222-1.336-3.14-1.855c-11.922-6.742-12.884-23.047-1.636-30.85c3.911-2.713,8.393-4.588,12.508-7.025
	c8.994-5.328,17.405-4.59,25.448,2.015c2.608,2.142,5.409,4.049,8.738,6.521c1.654-12.887,7.496-21.168,20.396-22.325
	c-5.49-33.469-45.994-89.694-74.315-103.515c-0.328,1.168-0.684,2.305-0.966,3.461c-2.61,10.71-5.133,21.442-7.831,32.129
	c-2.352,9.316-7.709,14.25-17.072,15.372c-10.967,1.315-21.967,2.403-32.974,3.322c-4.513,0.377-8.368,1.195-11.653,4.864
	c-4.164,4.651-9.257,8.462-13.519,13.036c-7.859,8.432-16.886,14.476-28.561,16.07c-2.607,0.356-5.132,1.342-7.678,2.096
	c-0.72,0.213-1.379,0.631-2.906,1.351c7.431,0.401,13.812,0.748,20.194,1.089c16.497,0.882,32.986,2.047,49.495,2.544
	c11.726,0.353,18.67,6.089,22.508,16.79c3.129,8.723,1.001,17.262-6.475,22.74c-8.377,6.137-16.874,12.111-25.322,18.152
	c-3.805,2.721-7.984,4.231-12.721,3.787c-5.564-0.521-11.132-1.022-16.683-1.664c-8.848-1.023-17.961-1.15-26.451-3.503
	c-9.789-2.713-18.988-7.517-28.533-11.181c-1.385-0.532-3.689-0.366-4.847,0.473c-8.734,6.328-17.326,12.856-25.849,19.466
	c-1.107,0.858-2.021,2.467-2.26,3.859c-1.439,8.385-2.749,16.796-3.879,25.229c-0.285,2.13-0.448,4.748,0.511,6.496
	c5.503,10.027,11.312,19.888,17.167,29.717c0.624,1.048,2.163,2.048,3.37,2.173c9.269,0.958,18.548,1.982,27.851,2.422
	c10.361,0.49,16.746,5.257,20.731,14.982c6.913,16.87,9.9,34.692,14.212,52.206c0.367,1.492,1.391,3.222,2.637,4.027
	C217.077,355.836,222.08,358.6,228.278,362.234z M92.049,353.006c0.557-4.241,0.594-8.188,1.651-11.84
	c2.394-8.267-1.014-13.471-7.216-18.724c-8.168-6.918-16.767-13.575-22.527-23.017c-6.232-10.216-12.811-20.223-19.367-30.237
	c-0.948-1.448-2.502-3.276-3.962-3.461c-3.844-0.486-7.791-0.164-11.826-0.164C38.23,296.783,63.534,332.503,92.049,353.006z
	 M82.37,64.17c-28.759,25.696-47.947,56.252-57.335,92.866c5.265-6.858,9.869-14.169,15.066-21.03
	c3.333-4.4,7.125-8.669,11.452-12.048c6.267-4.893,13.197-8.938,19.857-13.326c5.813-3.83,10.376-8.901,10.809-15.937
	C82.822,84.893,82.37,75.025,82.37,64.17z M177.626,20.294c0.335,1.896,0.426,3.515,0.916,5.003
	c2.782,8.45,1.076,16.108-3.35,23.624c-4.178,7.094-7.816,14.505-11.665,21.791c-0.555,1.051-1.275,2.159-1.347,3.277
	c-0.065,1.012,0.371,2.528,1.105,2.982c0.681,0.422,2.177-0.034,3.078-0.532c0.882-0.487,1.487-1.496,2.179-2.306
	c10.031-11.745,19.889-23.644,30.188-35.149c2.914-3.256,6.843-5.894,10.78-7.876c5.79-2.914,12.03-4.922,18.019-7.456
	c1.532-0.648,2.842-1.822,5.028-3.266C213.551,17.595,195.802,17.647,177.626,20.294z"/>
</svg>
