<svg version="1.1" id="Layer_1" xmlns="http://www.w3.org/2000/svg" xmlns:xlink="http://www.w3.org/1999/xlink" x="0px" y="0px"
	 width="100%" height="100%" viewBox="0 0 4.799 20.4" style="enable-background:new 0 0 4.799 20.4;" xml:space="preserve">

	<path style="fill:#fff;" d="M2.399,15.032C1.074,15.032,0,16.233,0,17.716C0,19.198,1.074,20.4,2.399,20.4
		c1.325,0,2.399-1.202,2.399-2.684C4.799,16.233,3.724,15.032,2.399,15.032z M2.399,7.516C1.074,7.516,0,8.718,0,10.2
		s1.074,2.684,2.399,2.684c1.325,0,2.399-1.202,2.399-2.684S3.724,7.516,2.399,7.516z M2.399,5.368c1.325,0,2.399-1.202,2.399-2.684
		C4.799,1.202,3.724,0,2.399,0C1.074,0,0,1.202,0,2.684C0,4.167,1.074,5.368,2.399,5.368z"/>
</svg>
